<?xml version="1.0" encoding="UTF-8" standalone="no"?>
<!DOCTYPE svg PUBLIC "-//W3C//DTD SVG 1.1//EN"
 "http://www.w3.org/Graphics/SVG/1.1/DTD/svg11.dtd">
<!-- Generated by graphviz version 9.0.0 (20230911.1827)
 -->
<!-- Title: G Pages: 1 -->
<svg width="423pt" height="468pt"
 viewBox="0.00 0.00 422.50 467.67" xmlns="http://www.w3.org/2000/svg" xmlns:xlink="http://www.w3.org/1999/xlink">
<g id="graph0" class="graph" transform="scale(1 1) rotate(0) translate(4 463.67)">
<title>G</title>
<polygon fill="beige" stroke="none" points="-4,4 -4,-463.67 418.5,-463.67 418.5,4 -4,4"/>
<g id="clust1" class="cluster">
<title>cluster_esp</title>
<polygon fill="lightgray" stroke="black" points="98,-26.67 98,-451.67 213.5,-451.67 213.5,-26.67 98,-26.67"/>
<text text-anchor="middle" x="155.75" y="-434.37" font-family="mononoki" font-size="14.00">ESP32&#45;C3</text>
<text text-anchor="middle" x="155.75" y="-417.87" font-family="mononoki" font-size="14.00">DevKitM&#45;1</text>
</g>
<g id="clust2" class="cluster">
<title>cluster_max</title>
<polygon fill="lightgray" stroke="black" points="233.5,-15.67 233.5,-280.67 325.5,-280.67 325.5,-15.67 233.5,-15.67"/>
<text text-anchor="middle" x="279.5" y="-263.37" font-family="mononoki" font-size="14.00">Adafruit</text>
<text text-anchor="middle" x="279.5" y="-246.87" font-family="mononoki" font-size="14.00">MAX31865</text>
</g>
<g id="clust3" class="cluster">
<title>cluster_bat</title>
<polygon fill="lightgray" stroke="black" points="8,-74.67 8,-165.67 78,-165.67 78,-74.67 8,-74.67"/>
<text text-anchor="middle" x="43" y="-148.37" font-family="mononoki" font-size="14.00">Battery</text>
</g>
<!-- esp -->
<g id="node1" class="node">
<title>esp</title>
<polygon fill="white" stroke="black" points="106,-34.92 106,-402.42 205.5,-402.42 205.5,-34.92 106,-34.92"/>
<text text-anchor="middle" x="129" y="-385.12" font-family="mononoki" font-size="14.00">GND</text>
<polyline fill="none" stroke="black" points="106,-377.92 152,-377.92"/>
<text text-anchor="middle" x="129" y="-360.62" font-family="mononoki" font-size="14.00">3V3</text>
<polyline fill="none" stroke="black" points="106,-353.42 152,-353.42"/>
<text text-anchor="middle" x="129" y="-336.12" font-family="mononoki" font-size="14.00">3V3</text>
<polyline fill="none" stroke="black" points="106,-328.92 152,-328.92"/>
<text text-anchor="middle" x="129" y="-311.62" font-family="mononoki" font-size="14.00">IO2</text>
<polyline fill="none" stroke="black" points="106,-304.42 152,-304.42"/>
<text text-anchor="middle" x="129" y="-287.12" font-family="mononoki" font-size="14.00">IO3</text>
<polyline fill="none" stroke="black" points="106,-279.92 152,-279.92"/>
<text text-anchor="middle" x="129" y="-262.62" font-family="mononoki" font-size="14.00">GND</text>
<polyline fill="none" stroke="black" points="106,-255.42 152,-255.42"/>
<text text-anchor="middle" x="129" y="-238.12" font-family="mononoki" font-size="14.00">RST</text>
<polyline fill="none" stroke="black" points="106,-230.92 152,-230.92"/>
<text text-anchor="middle" x="129" y="-213.62" font-family="mononoki" font-size="14.00">GND</text>
<polyline fill="none" stroke="black" points="106,-206.42 152,-206.42"/>
<text text-anchor="middle" x="129" y="-189.12" font-family="mononoki" font-size="14.00">IO0</text>
<polyline fill="none" stroke="black" points="106,-181.92 152,-181.92"/>
<text text-anchor="middle" x="129" y="-164.62" font-family="mononoki" font-size="14.00">IO1</text>
<polyline fill="none" stroke="black" points="106,-157.42 152,-157.42"/>
<text text-anchor="middle" x="129" y="-140.12" font-family="mononoki" font-size="14.00">IO10</text>
<polyline fill="none" stroke="black" points="106,-132.92 152,-132.92"/>
<text text-anchor="middle" x="129" y="-115.62" font-family="mononoki" font-size="14.00">GND</text>
<polyline fill="none" stroke="black" points="106,-108.42 152,-108.42"/>
<text text-anchor="middle" x="129" y="-91.12" font-family="mononoki" font-size="14.00">5V</text>
<polyline fill="none" stroke="black" points="106,-83.92 152,-83.92"/>
<text text-anchor="middle" x="129" y="-66.62" font-family="mononoki" font-size="14.00">5V</text>
<polyline fill="none" stroke="black" points="106,-59.42 152,-59.42"/>
<text text-anchor="middle" x="129" y="-42.12" font-family="mononoki" font-size="14.00">GND</text>
<polyline fill="none" stroke="black" points="152,-34.92 152,-402.42"/>
<text text-anchor="middle" x="178.75" y="-385.12" font-family="mononoki" font-size="14.00">GND</text>
<polyline fill="none" stroke="black" points="152,-377.92 205.5,-377.92"/>
<text text-anchor="middle" x="178.75" y="-360.62" font-family="mononoki" font-size="14.00">TX</text>
<polyline fill="none" stroke="black" points="152,-353.42 205.5,-353.42"/>
<text text-anchor="middle" x="178.75" y="-336.12" font-family="mononoki" font-size="14.00">RX</text>
<polyline fill="none" stroke="black" points="152,-328.92 205.5,-328.92"/>
<text text-anchor="middle" x="178.75" y="-311.62" font-family="mononoki" font-size="14.00">GND</text>
<polyline fill="none" stroke="black" points="152,-304.42 205.5,-304.42"/>
<text text-anchor="middle" x="178.75" y="-287.12" font-family="mononoki" font-size="14.00">IO9</text>
<polyline fill="none" stroke="black" points="152,-279.92 205.5,-279.92"/>
<text text-anchor="middle" x="178.75" y="-262.62" font-family="mononoki" font-size="14.00">IO8</text>
<polyline fill="none" stroke="black" points="152,-255.42 205.5,-255.42"/>
<text text-anchor="middle" x="178.75" y="-238.12" font-family="mononoki" font-size="14.00">GND</text>
<polyline fill="none" stroke="black" points="152,-230.92 205.5,-230.92"/>
<text text-anchor="middle" x="178.75" y="-213.62" font-family="mononoki" font-size="14.00">GPIO7</text>
<polyline fill="none" stroke="black" points="152,-206.42 205.5,-206.42"/>
<text text-anchor="middle" x="178.75" y="-189.12" font-family="mononoki" font-size="14.00">GPIO6</text>
<polyline fill="none" stroke="black" points="152,-181.92 205.5,-181.92"/>
<text text-anchor="middle" x="178.75" y="-164.62" font-family="mononoki" font-size="14.00">GPIO5</text>
<polyline fill="none" stroke="black" points="152,-157.42 205.5,-157.42"/>
<text text-anchor="middle" x="178.75" y="-140.12" font-family="mononoki" font-size="14.00">GPIO4</text>
<polyline fill="none" stroke="black" points="152,-132.92 205.5,-132.92"/>
<text text-anchor="middle" x="178.75" y="-115.62" font-family="mononoki" font-size="14.00">GND</text>
<polyline fill="none" stroke="black" points="152,-108.42 205.5,-108.42"/>
<text text-anchor="middle" x="178.75" y="-91.12" font-family="mononoki" font-size="14.00">IO18</text>
<polyline fill="none" stroke="black" points="152,-83.92 205.5,-83.92"/>
<text text-anchor="middle" x="178.75" y="-66.62" font-family="mononoki" font-size="14.00">IO19</text>
<polyline fill="none" stroke="black" points="152,-59.42 205.5,-59.42"/>
<text text-anchor="middle" x="178.75" y="-42.12" font-family="mononoki" font-size="14.00">GND</text>
</g>
<!-- max -->
<g id="node2" class="node">
<title>max</title>
<polygon fill="white" stroke="black" points="252.5,-84.17 252.5,-231.17 306.5,-231.17 306.5,-84.17 252.5,-84.17"/>
<text text-anchor="middle" x="279.5" y="-213.87" font-family="mononoki" font-size="14.00">CS</text>
<polyline fill="none" stroke="black" points="252.5,-206.67 306.5,-206.67"/>
<text text-anchor="middle" x="279.5" y="-189.37" font-family="mononoki" font-size="14.00">SDI</text>
<polyline fill="none" stroke="black" points="252.5,-182.17 306.5,-182.17"/>
<text text-anchor="middle" x="279.5" y="-164.87" font-family="mononoki" font-size="14.00">SDO</text>
<polyline fill="none" stroke="black" points="252.5,-157.67 306.5,-157.67"/>
<text text-anchor="middle" x="279.5" y="-140.37" font-family="mononoki" font-size="14.00">CLK</text>
<polyline fill="none" stroke="black" points="252.5,-133.17 306.5,-133.17"/>
<text text-anchor="middle" x="279.5" y="-115.87" font-family="mononoki" font-size="14.00">GND</text>
<polyline fill="none" stroke="black" points="252.5,-108.67 306.5,-108.67"/>
<text text-anchor="middle" x="279.5" y="-91.37" font-family="mononoki" font-size="14.00">VIN</text>
</g>
<!-- esp&#45;&#45;max -->
<g id="edge4" class="edge">
<title>esp:_3v3_1&#45;&#45;max:_3v3</title>
<path fill="none" stroke="red" stroke-width="2" d="M104.75,-365.67C88.19,-365.67 93.88,-391.36 105.75,-402.92 137.52,-433.84 171.9,-431.84 205.5,-402.92 257.65,-358.01 182.68,-96.67 251.5,-96.67"/>
</g>
<!-- esp&#45;&#45;max -->
<g id="edge5" class="edge">
<title>esp:io6&#45;&#45;max:sdi</title>
<path fill="none" stroke="blue" stroke-width="2" d="M206.75,-193.67C226.64,-193.67 231.61,-194.67 251.5,-194.67"/>
</g>
<!-- esp&#45;&#45;max -->
<g id="edge6" class="edge">
<title>esp:io5&#45;&#45;max:sdo</title>
<path fill="none" stroke="green" stroke-width="2" d="M206.75,-169.67C226.64,-169.67 231.61,-169.67 251.5,-169.67"/>
</g>
<!-- esp&#45;&#45;max -->
<g id="edge7" class="edge">
<title>esp:io4&#45;&#45;max:clk</title>
<path fill="none" stroke="darkorange" stroke-width="2" d="M206.75,-144.67C226.64,-144.67 231.61,-145.67 251.5,-145.67"/>
</g>
<!-- esp&#45;&#45;max -->
<g id="edge8" class="edge">
<title>esp:io7&#45;&#45;max:cs</title>
<path fill="none" stroke="purple" stroke-width="2" d="M206.75,-218.67C226.64,-218.67 231.61,-218.67 251.5,-218.67"/>
</g>
<!-- max_term -->
<g id="node3" class="node">
<title>max_term</title>
<polygon fill="white" stroke="black" points="241.5,-24.17 241.5,-65.17 317.5,-65.17 317.5,-24.17 241.5,-24.17"/>
<text text-anchor="middle" x="279.5" y="-47.87" font-family="mononoki" font-size="14.00">PT1000</text>
<text text-anchor="middle" x="279.5" y="-31.37" font-family="mononoki" font-size="14.00">Terminal</text>
</g>
<!-- pt1000 -->
<g id="node5" class="node">
<title>pt1000</title>
<polygon fill="white" stroke="black" points="353.5,-24.17 353.5,-65.17 414.5,-65.17 414.5,-24.17 353.5,-24.17"/>
<text text-anchor="middle" x="384" y="-47.87" font-family="mononoki" font-size="14.00">PT1000</text>
<text text-anchor="middle" x="384" y="-31.37" font-family="mononoki" font-size="14.00">Probe</text>
</g>
<!-- max_term&#45;&#45;pt1000 -->
<g id="edge9" class="edge">
<title>max_term&#45;&#45;pt1000</title>
<path fill="none" stroke="brown" stroke-width="2" d="M317.79,-44.67C329.47,-44.67 342.2,-44.67 353.28,-44.67"/>
</g>
<!-- bat -->
<g id="node4" class="node">
<title>bat</title>
<polygon fill="white" stroke="black" points="16,-83.17 16,-132.17 70,-132.17 70,-83.17 16,-83.17"/>
<text text-anchor="middle" x="43" y="-114.87" font-family="mononoki" font-size="14.00">GND</text>
<polyline fill="none" stroke="black" points="16,-107.67 70,-107.67"/>
<text text-anchor="middle" x="43" y="-90.37" font-family="mononoki" font-size="14.00">5V</text>
</g>
<!-- bat&#45;&#45;esp -->
<g id="edge1" class="edge">
<title>bat:_5v&#45;&#45;esp:_5v_1</title>
<path fill="none" stroke="red" stroke-width="2" d="M71,-95.67C86,-95.67 89.75,-95.67 104.75,-95.67"/>
</g>
<!-- bat&#45;&#45;esp -->
<g id="edge2" class="edge">
<title>bat:gnd&#45;&#45;esp:gnd1</title>
<path fill="none" stroke="black" stroke-width="2" d="M71,-119.67C192.37,-119.67 -16.62,-390.67 104.75,-390.67"/>
</g>
<!-- bat&#45;&#45;max -->
<g id="edge3" class="edge">
<title>bat:gnd&#45;&#45;max:gnd</title>
<path fill="none" stroke="black" stroke-width="2" d="M71,-119.67C115.75,-119.67 62.37,-49.74 98,-22.67 138.88,8.39 171.19,6.39 213.5,-22.67 252.01,-49.11 204.78,-120.67 251.5,-120.67"/>
</g>
</g>
</svg>
